<?xml version="1.0" encoding="UTF-8"?>
<svg width="48" height="48" viewBox="0 0 48 48" fill="none" xmlns="http://www.w3.org/2000/svg">
  <path d="M34 16C34 13.7909 32.2091 12 30 12C27.7909 12 26 13.7909 26 16C26 18.2091 27.7909 20 30 20C32.2091 20 34 18.2091 34 16Z" stroke="#4A332F" stroke-width="2"/>
  <path d="M24 36C30.6274 36 36 30.6274 36 24C36 17.3726 30.6274 12 24 12C17.3726 12 12 17.3726 12 24C12 30.6274 17.3726 36 24 36Z" stroke="#4A332F" stroke-width="2"/>
  <path d="M24 28C26.2091 28 28 26.2091 28 24C28 21.7909 26.2091 20 24 20C21.7909 20 20 21.7909 20 24C20 26.2091 21.7909 28 24 28Z" stroke="#4A332F" stroke-width="2"/>
</svg>
